<svg xmlns="http://www.w3.org/2000/svg" version="1.1" xmlns:xlink="http://www.w3.org/1999/xlink" xmlns:svgjs="http://svgjs.com/svgjs" width="3000" height="1300" preserveAspectRatio="none" viewBox="0 0 3000 1300"><g mask="url(&quot;#SvgjsMask2271&quot;)" fill="none"><rect width="3000" height="1300" x="0" y="0" fill="url(#SvgjsRadialGradient2272)"></rect><path d="M-186.03 686.97C24.02 687.74 226.14 849.47 638.31 849.47 1050.48 849.47 1019.69 675.34 1462.66 686.97 1905.62 698.6 2004.76 1435.84 2287 1500.24" stroke="rgba(196, 174, 45, 0.58)" stroke-width="2"></path><path d="M-316.31 866.98C-103.28 857.99 40.1 491.86 454.98 502.98 869.86 514.1 933.17 1375.63 1226.27 1480.48" stroke="rgba(196, 174, 45, 0.58)" stroke-width="2"></path><path d="M-110.91 754.12C246.9 752.46 732.96 444.71 1288.76 455.12 1844.56 465.53 1705.02 1357.36 1988.6 1486.52" stroke="rgba(196, 174, 45, 0.58)" stroke-width="2"></path><path d="M-65.06 503.3C312.45 510.8 616.09 1001.63 1357.64 1010.3 2099.19 1018.97 2415.13 1339.78 2780.34 1341.96" stroke="rgba(196, 174, 45, 0.58)" stroke-width="2"></path><path d="M-293.14 301.95C71.9 314.54 459.61 840 1045.66 886.95 1631.71 933.9 1488.86 1477.35 1715.06 1525.74" stroke="rgba(196, 174, 45, 0.58)" stroke-width="2"></path></g><defs><mask id="SvgjsMask2271"><rect width="3000" height="1300" fill="#ffffff"></rect></mask><radialGradient cx="50%" cy="100%" r="1984.94" gradientUnits="userSpaceOnUse" id="SvgjsRadialGradient2272"><stop stop-color="rgba(245, 250, 231, 0.19)" offset="0"></stop><stop stop-color="rgba(237, 236, 236, 1)" offset="1"></stop></radialGradient></defs></svg>