<svg xmlns="http://www.w3.org/2000/svg" version="1.1" xmlns:xlink="http://www.w3.org/1999/xlink" xmlns:svgjs="http://svgjs.com/svgjs" width="2000" height="1300" preserveAspectRatio="none" viewBox="0 0 2000 1300"><g mask="url(&quot;#SvgjsMask1023&quot;)" fill="none"><rect width="2000" height="1300" x="0" y="0" fill="url(#SvgjsRadialGradient1024)"></rect><path d="M-192.72 529.83C-10.36 501.24 29.92 21.5 378.35 61.83 726.79 102.16 677.23 1122.99 949.43 1344.68" stroke="rgba(222, 217, 184, 0.58)" stroke-width="2"></path><path d="M-380.35 254.29C-185.09 266.45-124.65 571.12 305.41 631.29 735.48 691.46 754.68 1264.32 991.18 1320.19" stroke="rgba(222, 217, 184, 0.58)" stroke-width="2"></path><path d="M-224.48 969.13C-82.09 970.84 48.48 1131.63 321.43 1131.63 594.39 1131.63 590.71 968.53 867.35 969.13 1143.99 969.73 1252.74 1297.82 1413.26 1311.6" stroke="rgba(222, 217, 184, 0.58)" stroke-width="2"></path><path d="M-276.03 482.25C-37.86 478.41 216.02 136.63 628.66 183.25 1041.31 229.87 850.84 1198.21 1081.01 1440.19" stroke="rgba(222, 217, 184, 0.58)" stroke-width="2"></path><path d="M-9.54 311.26C248.74 336.29 448.88 825.91 856.6 883.26 1264.32 940.61 1139.61 1287.17 1289.67 1323.41" stroke="rgba(222, 217, 184, 0.58)" stroke-width="2"></path></g><defs><mask id="SvgjsMask1023"><rect width="2000" height="1300" fill="#ffffff"></rect></mask><radialGradient cx="50%" cy="100%" r="1640.12" gradientUnits="userSpaceOnUse" id="SvgjsRadialGradient1024"><stop stop-color="rgba(245, 250, 231, 0.19)" offset="0"></stop><stop stop-color="rgba(237, 236, 236, 1)" offset="1"></stop></radialGradient></defs></svg>