<svg xmlns="http://www.w3.org/2000/svg" version="1.1" xmlns:xlink="http://www.w3.org/1999/xlink" xmlns:svgjs="http://svgjs.com/svgjs" width="3000" height="1300" preserveAspectRatio="none" viewBox="0 0 3000 1300"><g mask="url(&quot;#SvgjsMask2283&quot;)" fill="none"><rect width="3000" height="1300" x="0" y="0" fill="url(#SvgjsRadialGradient2284)"></rect><path d="M2182.58-8.84C1743.28 68.12 1523.82 1154.05 832.75 1157.55 141.69 1161.05-150.75 597.19-517.07 585.55" stroke="rgba(196, 174, 45, 0.58)" stroke-width="2"></path><path d="M2160.33-191.11C1785.76-152.27 1603.74 626.17 914.7 655.85 225.66 685.53-8.28 990.87-330.93 993.85" stroke="rgba(196, 174, 45, 0.58)" stroke-width="2"></path><path d="M1942.13-247.08C1743.06-238.37 1812.52 75.95 1223.18 97 633.85 118.05 175.67 695.5-214.71 708" stroke="rgba(196, 174, 45, 0.58)" stroke-width="2"></path><path d="M1527.39-246.69C1289.26-72.28 1431.13 803.16 1013.08 816.07 595.03 828.98 261.74 407.85-15.54 400.07" stroke="rgba(196, 174, 45, 0.58)" stroke-width="2"></path><path d="M2006.34-22.05C1718.25 37.9 1606.86 774.06 1149.12 784.57 691.38 795.08 720.52 622.07 291.91 622.07-136.7 622.07-347.19 783.85-565.31 784.57" stroke="rgba(196, 174, 45, 0.58)" stroke-width="2"></path></g><defs><mask id="SvgjsMask2283"><rect width="3000" height="1300" fill="#ffffff"></rect></mask><radialGradient cx="50%" cy="100%" r="1984.94" gradientUnits="userSpaceOnUse" id="SvgjsRadialGradient2284"><stop stop-color="rgba(245, 250, 231, 0.19)" offset="0"></stop><stop stop-color="rgba(237, 236, 236, 1)" offset="1"></stop></radialGradient></defs></svg>