<svg xmlns="http://www.w3.org/2000/svg" version="1.1" xmlns:xlink="http://www.w3.org/1999/xlink" xmlns:svgjs="http://svgjs.com/svgjs" width="1800" height="1000" preserveAspectRatio="none" viewBox="0 0 1800 1000"><g mask="url(&quot;#SvgjsMask7341&quot;)" fill="none"><rect width="1800" height="1000" x="0" y="0" fill="url(#SvgjsLinearGradient7342)"></rect><path d="M1800 0L950.55 0L1800 183.99z" fill="rgba(255, 255, 255, .1)"></path><path d="M950.55 0L1800 183.99L1800 233.31L900.4399999999999 0z" fill="rgba(255, 255, 255, .075)"></path><path d="M900.4399999999999 0L1800 233.31L1800 233.71L799.9899999999999 0z" fill="rgba(255, 255, 255, .05)"></path><path d="M799.9899999999999 0L1800 233.71L1800 244.75L548.7199999999999 0z" fill="rgba(255, 255, 255, .025)"></path><path d="M0 1000L102.46 1000L0 862.09z" fill="rgba(0, 0, 0, .1)"></path><path d="M0 862.09L102.46 1000L266.77 1000L0 437.53000000000003z" fill="rgba(0, 0, 0, .075)"></path><path d="M0 437.53L266.77 1000L471.43999999999994 1000L0 399.33z" fill="rgba(0, 0, 0, .05)"></path><path d="M0 399.3299999999999L471.43999999999994 1000L1301.85 1000L0 178.64999999999992z" fill="rgba(0, 0, 0, .025)"></path></g><defs><mask id="SvgjsMask7341"><rect width="1800" height="1000" fill="#ffffff"></rect></mask><linearGradient x1="0%" y1="50%" x2="100%" y2="50%" gradientUnits="userSpaceOnUse" id="SvgjsLinearGradient7342"><stop stop-color="rgba(200, 195, 154, 0.59)" offset="0.03"></stop><stop stop-color="rgba(243, 239, 199, 0.59)" offset="0.92"></stop></linearGradient></defs></svg>