<svg xmlns="http://www.w3.org/2000/svg" version="1.1" xmlns:xlink="http://www.w3.org/1999/xlink" xmlns:svgjs="http://svgjs.com/svgjs" width="1800" height="1000" preserveAspectRatio="none" viewBox="0 0 1800 1000"><g mask="url(&quot;#SvgjsMask2770&quot;)" fill="none"><rect width="1800" height="1000" x="0" y="0" fill="url(#SvgjsLinearGradient2771)"></rect><path d="M1800 0L1795.7 0L1800 101.73z" fill="rgba(255, 255, 255, .1)"></path><path d="M1795.7 0L1800 101.73L1800 281.7L1225.6 0z" fill="rgba(255, 255, 255, .075)"></path><path d="M1225.6 0L1800 281.7L1800 307.9L878.52 0z" fill="rgba(255, 255, 255, .05)"></path><path d="M878.52 0L1800 307.9L1800 334.60999999999996L687.05 0z" fill="rgba(255, 255, 255, .025)"></path><path d="M0 1000L216.86 1000L0 555.98z" fill="rgba(0, 0, 0, .1)"></path><path d="M0 555.98L216.86 1000L642.46 1000L0 523.28z" fill="rgba(0, 0, 0, .075)"></path><path d="M0 523.28L642.46 1000L671.6 1000L0 377.72999999999996z" fill="rgba(0, 0, 0, .05)"></path><path d="M0 377.73L671.6 1000L1443.52 1000L0 320.05z" fill="rgba(0, 0, 0, .025)"></path></g><defs><mask id="SvgjsMask2770"><rect width="1800" height="1000" fill="#ffffff"></rect></mask><linearGradient x1="88.89%" y1="-20%" x2="11.11%" y2="120%" gradientUnits="userSpaceOnUse" id="SvgjsLinearGradient2771"><stop stop-color="rgba(88, 86, 88, 0.9647058823529412)" offset="0"></stop><stop stop-color="rgba(85, 76, 87, 1)" offset="0.86"></stop></linearGradient></defs></svg>