<svg xmlns="http://www.w3.org/2000/svg" version="1.1" xmlns:xlink="http://www.w3.org/1999/xlink" xmlns:svgjs="http://svgjs.com/svgjs" width="2500" height="2000" preserveAspectRatio="none" viewBox="0 0 2500 2000"><g mask="url(&quot;#SvgjsMask3114&quot;)" fill="none"><rect width="2500" height="2000" x="0" y="0" fill="url(#SvgjsLinearGradient3115)"></rect><path d="M2500 0L1484.23 0L2500 698.08z" fill="rgba(255, 255, 255, .1)"></path><path d="M1484.23 0L2500 698.08L2500 829.9000000000001L1291.25 0z" fill="rgba(255, 255, 255, .075)"></path><path d="M1291.25 0L2500 829.9000000000001L2500 1086.46L888.0699999999999 0z" fill="rgba(255, 255, 255, .05)"></path><path d="M888.0699999999999 0L2500 1086.46L2500 1564.51L385.1599999999999 0z" fill="rgba(255, 255, 255, .025)"></path><path d="M0 2000L99.59 2000L0 1635.65z" fill="rgba(0, 0, 0, .1)"></path><path d="M0 1635.65L99.59 2000L965.08 2000L0 1503.8000000000002z" fill="rgba(0, 0, 0, .075)"></path><path d="M0 1503.8L965.08 2000L1147.98 2000L0 742.5899999999999z" fill="rgba(0, 0, 0, .05)"></path><path d="M0 742.5899999999999L1147.98 2000L1490.14 2000L0 285.30999999999995z" fill="rgba(0, 0, 0, .025)"></path></g><defs><mask id="SvgjsMask3114"><rect width="2500" height="2000" fill="#ffffff"></rect></mask><linearGradient x1="0%" y1="50%" x2="100%" y2="50%" gradientUnits="userSpaceOnUse" id="SvgjsLinearGradient3115"><stop stop-color="rgba(88, 86, 88, 0.9647058823529412)" offset="0"></stop><stop stop-color="rgba(101, 101, 101, 0.82)" offset="0.86"></stop></linearGradient></defs></svg>