<svg xmlns="http://www.w3.org/2000/svg" version="1.1" xmlns:xlink="http://www.w3.org/1999/xlink" xmlns:svgjs="http://svgjs.com/svgjs" width="1800" height="1000" preserveAspectRatio="none" viewBox="0 0 1800 1000"><g mask="url(&quot;#SvgjsMask1748&quot;)" fill="none"><rect width="1800" height="1000" x="0" y="0" fill="url(#SvgjsLinearGradient1749)"></rect><path d="M1800 0L1421.07 0L1800 427.32z" fill="rgba(255, 255, 255, .1)"></path><path d="M1421.07 0L1800 427.32L1800 655.85L803.17 0z" fill="rgba(255, 255, 255, .075)"></path><path d="M803.1700000000001 0L1800 655.85L1800 837.82L421.6000000000001 0z" fill="rgba(255, 255, 255, .05)"></path><path d="M421.60000000000014 0L1800 837.82L1800 844.7L147.85000000000014 0z" fill="rgba(255, 255, 255, .025)"></path><path d="M0 1000L683.85 1000L0 618.02z" fill="rgba(0, 0, 0, .1)"></path><path d="M0 618.02L683.85 1000L1182.51 1000L0 481.99z" fill="rgba(0, 0, 0, .075)"></path><path d="M0 481.99L1182.51 1000L1352.28 1000L0 369z" fill="rgba(0, 0, 0, .05)"></path><path d="M0 369L1352.28 1000L1403.37 1000L0 125.87z" fill="rgba(0, 0, 0, .025)"></path></g><defs><mask id="SvgjsMask1748"><rect width="1800" height="1000" fill="#ffffff"></rect></mask><linearGradient x1="11.11%" y1="120%" x2="88.89%" y2="-20%" gradientUnits="userSpaceOnUse" id="SvgjsLinearGradient1749"><stop stop-color="rgba(255, 244, 226, 0.4)" offset="0.68"></stop><stop stop-color="rgba(255, 254, 251, 1)" offset="1"></stop></linearGradient></defs></svg>