<svg xmlns="http://www.w3.org/2000/svg" version="1.1" xmlns:xlink="http://www.w3.org/1999/xlink" xmlns:svgjs="http://svgjs.com/svgjs" width="1800" height="1200" preserveAspectRatio="none" viewBox="0 0 1800 1200"><g mask="url(&quot;#SvgjsMask4677&quot;)" fill="none"><rect width="1800" height="1200" x="0" y="0" fill="url(#SvgjsLinearGradient4678)"></rect><path d="M -1579.691636249037,356 C -1219.69,494.2 -499.69,1109.6 220.308363750963,1047 C 940.31,984.4 1704.37,58.4 2020.308363750963,43 C 2336.25,27.6 1844.06,784.6 1800,970" stroke="rgba(194, 126, 51, 0.36)" stroke-width="2"></path><path d="M -3048.2575603501937,651 C -2688.26,605 -1968.26,384.2 -1248.257560350194,421 C -528.26,457.8 -57.91,800.4 551.7424396498061,835 C 1161.39,869.6 1550.35,642.2 1800,594" stroke="rgba(194, 126, 51, 0.36)" stroke-width="2"></path><path d="M -3498.412686219698,268 C -3138.41,439 -2418.41,1076 -1698.412686219698,1123 C -978.41,1170 -598.1,560.4 101.58731378030211,503 C 801.27,445.6 1460.32,769.4 1800,836" stroke="rgba(194, 126, 51, 0.36)" stroke-width="2"></path></g><defs><mask id="SvgjsMask4677"><rect width="1800" height="1200" fill="#ffffff"></rect></mask><linearGradient x1="8.33%" y1="112.5%" x2="91.67%" y2="-12.5%" gradientUnits="userSpaceOnUse" id="SvgjsLinearGradient4678"><stop stop-color="rgba(225, 213, 200, 1)" offset="0"></stop><stop stop-color="rgba(255, 255, 255, 0)" offset="1"></stop></linearGradient></defs></svg>