<svg xmlns="http://www.w3.org/2000/svg" version="1.1" xmlns:xlink="http://www.w3.org/1999/xlink" xmlns:svgjs="http://svgjs.com/svgjs" width="1440" height="560" preserveAspectRatio="none" viewBox="0 0 1440 560"><g mask="url(&quot;#SvgjsMask1100&quot;)" fill="none"><path d="M -549.6869862544023,211 C -261.69,241.6 314.31,356.4 890.3130137455977,364 C 1466.31,371.6 2220.38,257.6 2330.313013745598,249 C 2440.25,240.4 1618.06,306.6 1440,321" stroke="rgba(194, 126, 51, 0.58)" stroke-width="2"></path><path d="M -1078.1362549690866,324 C -790.14,294 -214.14,143.6 361.86374503091326,174 C 937.86,204.4 1586.24,471.2 1801.8637450309134,476 C 2017.49,480.8 1512.37,253.6 1440,198" stroke="rgba(194, 126, 51, 0.58)" stroke-width="2"></path><path d="M -130.47266247832385,302 C 157.53,292.8 733.53,258.4 1309.5273375216761,256 C 1885.53,253.6 2723.43,286.2 2749.527337521676,290 C 2775.62,293.8 1701.91,278 1440,275" stroke="rgba(194, 126, 51, 0.58)" stroke-width="2"></path><path d="M -928.5602404434377,197 C -640.56,238.4 -64.56,407.2 511.4397595565623,404 C 1087.44,400.8 1765.73,169.6 1951.4397595565624,181 C 2137.15,192.4 1542.29,405 1440,461" stroke="rgba(194, 126, 51, 0.58)" stroke-width="2"></path></g><defs><mask id="SvgjsMask1100"><rect width="1440" height="560" fill="#ffffff"></rect></mask></defs></svg>