<svg xmlns="http://www.w3.org/2000/svg" version="1.1" xmlns:xlink="http://www.w3.org/1999/xlink" xmlns:svgjs="http://svgjs.com/svgjs" width="1400" height="1000" preserveAspectRatio="none" viewBox="0 0 1400 1000"><g mask="url(&quot;#SvgjsMask4645&quot;)" fill="none"><rect width="1400" height="1000" x="0" y="0" fill="url(#SvgjsLinearGradient4646)"></rect><path d="M -1502.9647700114283,535 C -1222.96,456.4 -662.96,122.6 -102.96477001142827,142 C 457.04,161.4 996.44,587.2 1297.0352299885717,632 C 1597.63,676.8 1379.41,419.2 1400,366" stroke="rgba(194, 126, 51, 0.36)" stroke-width="2"></path><path d="M -1191.7359718724279,96 C -911.74,253.4 -351.74,858.8 208.26402812757217,883 C 768.26,907.2 1369.92,197.8 1608.2640281275721,217 C 1846.61,236.2 1441.65,826.6 1400,979" stroke="rgba(194, 126, 51, 0.36)" stroke-width="2"></path><path d="M -1213.714080340102,787 C -933.71,631.6 -373.71,12.2 186.285919659898,10 C 746.29,7.8 1343.54,720 1586.285919659898,776 C 1829.03,832 1437.26,387.2 1400,290" stroke="rgba(194, 126, 51, 0.36)" stroke-width="2"></path></g><defs><mask id="SvgjsMask4645"><rect width="1400" height="1000" fill="#ffffff"></rect></mask><linearGradient x1="7.14%" y1="110%" x2="92.86%" y2="-10%" gradientUnits="userSpaceOnUse" id="SvgjsLinearGradient4646"><stop stop-color="rgba(225, 213, 200, 1)" offset="0"></stop><stop stop-color="rgba(255, 255, 255, 0)" offset="1"></stop></linearGradient></defs></svg>





